<?xml version="1.0" standalone="no"?>
<!DOCTYPE svg PUBLIC "-//W3C//DTD SVG 20010904//EN"
 "http://www.w3.org/TR/2001/REC-SVG-20010904/DTD/svg10.dtd">
<svg version="1.0" xmlns="http://www.w3.org/2000/svg"
 width="512.000000pt" height="512.000000pt" viewBox="0 0 512.000000 512.000000"
 preserveAspectRatio="xMidYMid meet">
<metadata>
Created by potrace 1.14, written by Peter Selinger 2001-2017
</metadata>
<g transform="translate(0.000000,512.000000) scale(0.100000,-0.100000)"
fill="#000000" stroke="none">
<path d="M2036 4682 c-3 -5 1 -9 9 -9 8 0 12 4 9 9 -3 4 -7 8 -9 8 -2 0 -6 -4
-9 -8z"/>
<path d="M2094 4669 c-4 -8 -3 -9 4 -5 7 4 12 3 12 -3 0 -5 -9 -9 -19 -8 -11
0 -18 4 -16 7 7 11 -90 9 -104 -3 -8 -7 -12 -7 -9 -2 4 6 -3 11 -15 12 -12 0
-16 -1 -9 -4 6 -3 12 -12 12 -21 0 -13 -2 -14 -9 -4 -6 10 -11 9 -22 -4 -12
-15 -12 -17 0 -9 10 6 12 4 7 -4 -5 -7 -13 -10 -20 -8 -8 3 -13 -8 -14 -32 -2
-28 0 -33 9 -21 9 13 10 13 6 0 -2 -8 -13 -14 -23 -13 -18 1 -18 1 -1 -11 17
-13 25 -32 9 -22 -5 3 -9 -1 -9 -9 0 -8 4 -12 8 -9 4 2 5 -13 3 -33 -4 -29 -3
-34 5 -23 6 8 11 10 11 4 0 -6 -7 -17 -15 -24 -14 -12 -13 -16 7 -37 19 -20
19 -23 4 -17 -16 6 -17 5 -5 -14 7 -11 16 -19 19 -17 3 2 6 -7 6 -20 0 -16 -5
-21 -15 -18 -9 3 -2 -4 14 -16 17 -11 24 -21 16 -21 -8 0 -11 -7 -9 -18 6 -21
-33 -44 -53 -32 -17 11 -41 1 -32 -14 4 -6 -1 -5 -10 2 -9 8 -22 10 -29 6 -19
-12 -39 -14 -32 -3 3 5 10 6 16 3 7 -4 8 -2 4 5 -6 9 -14 8 -33 -5 -20 -13
-25 -13 -21 -2 4 10 -2 13 -24 12 -16 -1 -32 -5 -35 -8 -4 -3 -13 0 -21 7 -13
10 -15 9 -8 -7 7 -19 6 -19 -14 -1 -19 18 -20 18 -21 -1 0 -18 -1 -18 -9 1 -6
13 -9 15 -9 5 -1 -12 -3 -12 -10 -2 -7 11 -9 11 -14 -2 -7 -17 -6 -17 -68 15
-18 9 -21 8 -16 -3 3 -8 -1 -15 -9 -15 -7 0 -11 4 -8 9 7 11 -3 10 -26 -2 -13
-7 -19 -6 -24 5 -3 8 -1 17 4 20 6 4 10 1 10 -6 0 -7 3 -10 6 -6 14 14 -7 26
-26 15 -10 -7 -17 -15 -15 -18 2 -3 -6 -7 -18 -7 -17 -2 -19 0 -7 7 13 8 12
10 -2 10 -10 0 -18 -5 -18 -10 0 -6 -6 -5 -14 2 -8 7 -11 17 -8 22 3 5 0 6 -7
2 -6 -4 -9 -12 -6 -17 9 -13 -9 -11 -23 3 -9 9 -12 8 -12 -7 0 -18 0 -18 -16
1 -8 10 -13 13 -9 7 3 -7 2 -13 -4 -13 -5 0 -12 8 -14 18 -4 16 -5 16 -6 -1
-1 -15 -5 -16 -21 -7 -11 6 -20 7 -20 2 0 -4 -13 -7 -30 -6 -17 1 -30 -3 -30
-9 0 -8 -3 -8 -8 -2 -4 6 -14 11 -23 11 -12 1 -15 -5 -12 -20 4 -16 2 -18 -5
-7 -9 12 -13 12 -26 2 -9 -8 -16 -20 -16 -27 0 -8 -5 -13 -11 -11 -6 1 -12
-13 -14 -30 -2 -22 1 -31 9 -26 6 4 3 -5 -6 -19 -13 -19 -15 -29 -6 -34 7 -5
8 -3 3 6 -5 8 -4 11 3 6 6 -4 9 -13 5 -21 -3 -8 1 -15 8 -15 7 0 9 -3 6 -6 -4
-4 -14 -1 -23 7 -16 13 -16 12 -5 -8 6 -13 8 -23 4 -23 -4 0 0 -7 11 -15 10
-8 16 -21 13 -29 -4 -9 -1 -18 5 -22 7 -4 8 -3 4 4 -4 7 -5 12 -2 12 3 0 10
-10 17 -21 7 -15 8 -19 0 -15 -7 5 -9 1 -5 -8 3 -9 10 -13 15 -10 5 3 9 -2 9
-10 0 -9 5 -16 10 -16 6 0 10 -7 10 -16 0 -8 5 -12 10 -9 6 3 10 -3 10 -14 0
-11 9 -22 21 -26 17 -6 19 -9 8 -16 -10 -6 -11 -9 -1 -9 6 0 12 -7 12 -15 0
-8 4 -15 9 -15 6 0 8 -9 6 -20 -2 -12 2 -23 10 -27 8 -3 12 -9 9 -14 -3 -5 -9
-7 -14 -4 -4 3 -7 -3 -6 -13 1 -12 -6 -17 -21 -16 -17 0 -20 -3 -12 -12 8 -10
5 -12 -16 -8 -15 3 -24 1 -21 -4 3 -5 0 -9 -7 -10 -22 -2 -42 -7 -54 -15 -9
-6 -11 -3 -7 7 3 9 1 16 -5 16 -6 0 -11 -7 -11 -15 0 -9 -6 -12 -17 -8 -12 5
-14 3 -8 -7 5 -8 3 -11 -6 -8 -8 3 -23 1 -34 -5 -19 -10 -19 -9 -5 9 14 17 14
18 -2 6 -10 -8 -23 -10 -30 -6 -10 6 -11 5 -1 -7 10 -12 8 -15 -7 -15 -10 0
-16 5 -14 11 3 5 -2 1 -10 -9 -12 -15 -16 -16 -16 -5 -1 10 -3 9 -11 -3 -5
-10 -19 -18 -29 -18 -11 0 -20 -4 -20 -10 0 -5 -7 -7 -15 -4 -11 5 -13 2 -9
-11 6 -15 4 -16 -14 -6 -15 8 -23 8 -28 -1 -4 -6 -3 -9 2 -6 5 3 15 0 22 -8
11 -12 8 -14 -20 -10 -18 3 -27 3 -20 0 9 -4 6 -14 -10 -37 -12 -17 -17 -28
-11 -24 6 4 17 -1 24 -10 10 -12 10 -14 2 -9 -14 8 -18 -6 -6 -18 10 -9 13
-37 4 -31 -4 2 -8 -2 -8 -10 0 -8 4 -12 9 -9 4 3 8 -7 8 -21 0 -21 4 -26 16
-21 12 5 14 1 9 -15 -5 -16 -4 -19 6 -14 9 6 11 3 5 -10 -6 -16 -4 -16 11 -4
9 8 14 10 12 4 -7 -12 26 -46 35 -37 3 3 6 1 6 -4 0 -9 14 -13 57 -16 9 -1 9
-7 1 -22 -9 -18 -9 -19 3 -10 8 6 24 11 37 12 20 1 21 -2 11 -14 -6 -8 -9 -17
-5 -21 3 -3 6 -2 6 4 0 6 7 13 14 16 10 4 13 1 9 -9 -3 -7 0 -14 6 -14 6 0 11
6 11 13 1 6 6 3 13 -9 7 -12 19 -19 27 -16 9 2 7 -2 -5 -12 -11 -9 -15 -16
-10 -15 22 3 36 -2 31 -10 -4 -5 -1 -11 6 -13 10 -4 10 -11 -1 -34 -8 -16 -14
-32 -13 -36 1 -5 -4 -8 -10 -8 -9 0 -8 -4 2 -10 13 -8 12 -10 -3 -10 -11 0
-15 -4 -11 -12 5 -8 2 -9 -10 -5 -9 4 -14 3 -11 -2 3 -5 1 -12 -5 -16 -6 -4
-8 -10 -5 -15 3 -4 -2 -11 -11 -14 -11 -4 -15 -14 -12 -30 4 -18 1 -22 -12
-19 -10 3 -16 -3 -18 -16 -4 -44 -6 -50 -14 -45 -5 3 -5 10 -2 16 4 7 2 8 -4
4 -8 -5 -9 -13 -3 -24 6 -12 5 -24 -5 -37 -15 -20 -19 -39 -6 -31 4 2 8 -4 8
-14 0 -15 -3 -17 -16 -7 -8 6 -12 7 -8 3 4 -5 3 -15 -3 -22 -8 -10 -6 -12 11
-9 22 4 22 4 4 -17 -11 -12 -13 -18 -6 -14 12 7 15 0 15 -36 0 -10 6 -18 14
-18 7 0 16 -7 19 -15 4 -10 14 -14 28 -10 12 4 16 3 10 -2 -9 -6 -8 -11 2 -21
9 -8 14 -9 14 -2 0 6 7 4 16 -4 8 -9 20 -13 26 -10 7 4 8 2 4 -4 -4 -7 -1 -12
8 -12 9 0 16 -5 16 -11 0 -5 -4 -7 -10 -4 -5 3 -10 1 -10 -4 0 -6 5 -11 11
-11 6 0 9 -6 6 -14 -3 -7 2 -24 10 -37 9 -12 11 -19 5 -15 -7 4 -12 1 -12 -8
0 -8 6 -17 13 -19 9 -4 9 -6 -1 -6 -10 -1 -10 -4 0 -15 7 -8 17 -11 22 -8 5 3
6 0 2 -7 -6 -8 -12 -9 -20 -2 -9 8 -13 7 -13 -4 0 -7 3 -13 6 -12 3 1 17 -6
30 -15 16 -11 21 -22 17 -34 -5 -13 -4 -14 7 -6 10 9 17 7 27 -8 11 -15 16
-17 23 -7 6 8 7 5 4 -10 -3 -14 -1 -20 7 -17 7 3 21 -8 32 -23 25 -35 38 -67
23 -57 -8 5 -8 1 0 -13 6 -11 7 -24 3 -28 -4 -5 -1 -5 6 -1 7 4 9 12 6 18 -5
7 -2 8 5 4 7 -5 10 -15 7 -25 -6 -14 -5 -14 7 1 12 15 14 15 27 -5 12 -20 12
-21 -3 -8 -10 7 -17 9 -17 3 0 -14 27 -23 47 -15 11 5 14 3 8 -6 -5 -10 -2
-11 14 -6 17 5 24 2 28 -13 3 -12 11 -23 18 -26 7 -2 16 -20 20 -38 4 -18 12
-38 17 -45 7 -8 3 -10 -14 -6 -18 4 -20 3 -8 -6 13 -10 13 -12 0 -22 -13 -9
-13 -10 2 -6 9 3 19 -1 22 -9 3 -9 1 -12 -4 -9 -6 3 -10 -1 -10 -9 0 -9 5 -16
10 -16 6 0 10 -5 10 -11 0 -5 -4 -8 -8 -5 -5 3 -9 -1 -9 -9 0 -8 4 -12 9 -9 9
6 11 -7 8 -50 -1 -16 2 -26 8 -22 5 3 13 -1 16 -10 4 -9 2 -13 -5 -8 -8 5 -8
1 0 -13 6 -11 7 -23 3 -27 -3 -4 1 -4 10 -1 9 4 19 1 24 -6 4 -8 3 -10 -4 -5
-7 4 -12 1 -12 -9 0 -10 5 -13 12 -9 8 5 9 2 5 -9 -4 -12 -1 -17 11 -17 15 0
15 -2 2 -10 -12 -8 -11 -10 8 -10 15 0 22 -6 22 -21 0 -11 5 -17 10 -14 6 3
10 -1 10 -9 0 -9 5 -16 11 -16 5 0 7 4 4 10 -10 16 1 11 16 -7 10 -11 10 -14
2 -9 -7 4 -13 2 -13 -3 0 -6 5 -11 11 -11 7 0 18 -8 26 -17 8 -11 11 -12 7 -3
-7 13 -5 13 8 2 9 -7 22 -11 29 -10 9 2 13 -4 11 -14 -2 -10 2 -18 8 -18 5 0
10 5 10 10 0 6 6 5 14 -2 10 -9 11 -15 2 -20 -7 -5 -7 -8 -1 -8 6 0 16 5 23
12 9 9 12 9 12 -1 0 -10 3 -11 14 -2 10 8 16 9 21 1 3 -6 10 -8 15 -5 5 3 16
-2 24 -11 9 -9 16 -11 16 -4 0 7 6 5 16 -4 18 -19 31 -21 16 -3 -8 9 -4 12 18
12 16 1 26 -3 24 -7 -8 -13 11 -9 25 5 11 9 13 9 7 0 -7 -12 4 -17 31 -14 6 1
19 -9 27 -21 9 -12 16 -18 16 -12 0 5 -6 16 -12 23 -11 10 -9 11 5 5 16 -6 18
-14 13 -50 -4 -34 -2 -44 10 -44 7 0 14 -5 14 -11 0 -5 -4 -8 -8 -5 -5 3 -9
-1 -9 -9 0 -8 4 -12 9 -9 4 3 8 0 8 -5 0 -6 -6 -11 -12 -11 -10 0 -10 -2 0 -8
7 -5 14 -22 15 -39 1 -17 5 -29 10 -26 4 2 7 -3 7 -12 0 -12 5 -15 16 -11 15
6 15 4 3 -11 -12 -15 -12 -16 4 -10 9 3 17 2 17 -3 0 -6 -10 -10 -22 -11 l-23
0 23 -11 c12 -6 22 -18 22 -26 0 -9 8 -24 18 -35 9 -11 12 -17 5 -14 -6 4 -14
3 -18 -3 -3 -5 2 -10 12 -10 15 0 16 -2 3 -10 -13 -8 -12 -10 4 -10 15 0 16
-3 6 -15 -10 -12 -10 -15 0 -15 10 0 10 -3 0 -15 -10 -12 -10 -15 0 -15 9 0 9
-4 -1 -17 -8 -9 -9 -14 -3 -10 7 4 15 0 18 -9 4 -10 2 -13 -6 -8 -7 5 -9 2 -5
-8 3 -9 3 -19 -1 -22 -11 -12 -11 -40 1 -48 8 -5 5 -8 -8 -8 -17 0 -17 -2 -5
-10 11 -7 11 -10 2 -10 -10 0 -10 -5 -1 -23 11 -20 11 -21 -4 -9 -13 11 -15
10 -10 -7 3 -12 10 -18 16 -14 6 3 7 1 3 -6 -4 -6 -12 -9 -17 -6 -5 4 -9 3
-10 -2 -4 -43 -4 -61 2 -57 4 2 9 -3 13 -11 3 -8 1 -17 -5 -21 -6 -3 -8 -12
-5 -20 3 -7 0 -16 -6 -20 -7 -5 -8 -2 -3 7 5 8 4 10 0 6 -11 -10 -16 -39 -5
-32 4 3 11 -2 14 -11 4 -9 2 -13 -5 -8 -7 4 -10 1 -7 -7 3 -8 12 -13 19 -11
11 3 12 1 2 -9 -16 -16 -17 -33 -1 -23 7 5 8 3 2 -7 -15 -24 -13 -38 4 -32 11
5 13 3 7 -8 -7 -12 -6 -12 7 -1 13 10 18 10 24 1 4 -8 3 -9 -4 -5 -7 4 -12 2
-12 -3 0 -6 5 -11 11 -11 5 0 7 -6 3 -12 -5 -10 -4 -10 6 -1 11 10 17 8 32 -9
10 -12 18 -17 18 -12 0 6 -6 16 -12 24 -7 8 -3 6 10 -4 12 -11 25 -16 29 -13
3 4 13 1 21 -6 13 -9 14 -9 8 1 -4 6 -2 12 3 12 6 0 11 -5 11 -12 0 -6 6 -4
13 7 11 14 16 15 22 5 6 -9 4 -11 -6 -5 -8 5 -10 4 -6 0 10 -12 39 -16 32 -5
-8 13 18 18 38 8 10 -5 17 -5 17 1 0 6 11 6 29 1 22 -6 28 -5 25 4 -2 6 5 12
16 13 13 1 18 -2 13 -10 -5 -8 -2 -8 9 1 17 13 78 13 78 0 0 -4 5 -8 11 -8 5
0 8 4 4 9 -3 5 0 13 6 17 8 4 9 3 5 -4 -4 -7 -2 -12 3 -12 6 0 11 -8 12 -17 1
-12 4 -10 9 7 7 21 8 22 9 5 1 -17 3 -18 12 -5 9 12 10 11 6 -7 -5 -22 -4 -22
22 -5 25 16 25 16 12 -1 -12 -15 -12 -17 4 -11 11 5 16 4 12 -3 -3 -5 0 -10 8
-10 8 0 12 4 9 8 -2 4 0 10 6 14 5 3 10 0 10 -7 0 -7 11 -13 24 -13 18 0 22 3
14 12 -15 19 -2 16 17 -3 12 -13 19 -14 30 -4 12 10 15 10 16 -1 0 -8 4 -5 9
6 l9 20 0 -20 c1 -17 3 -17 11 -5 9 13 10 13 10 0 0 -12 2 -13 9 -1 6 9 21 12
44 9 25 -3 33 -1 27 7 -6 7 -2 11 13 11 12 0 25 -5 29 -10 5 -7 8 -3 8 8 0 20
0 20 16 0 11 -13 14 -14 11 -3 -3 9 1 16 9 16 7 0 11 -4 9 -8 -3 -4 2 -9 10
-12 9 -4 12 -1 8 9 -4 10 0 12 12 8 10 -4 21 -1 26 7 7 11 9 11 9 1 0 -7 4
-11 8 -8 4 2 14 1 22 -4 8 -5 21 -5 31 1 12 6 20 5 25 -3 5 -7 3 -8 -7 -3 -8
5 -10 4 -6 0 10 -12 38 -15 31 -4 -6 11 10 12 20 2 12 -13 30 -10 44 7 7 8 12
11 11 5 -3 -23 2 -27 18 -14 14 12 16 12 9 0 -6 -9 -5 -12 5 -9 8 3 13 12 11
19 -1 8 5 5 14 -6 11 -14 18 -16 21 -7 3 6 9 12 14 12 6 0 8 -4 5 -8 -2 -4 17
-8 44 -7 33 0 46 3 39 11 -9 12 18 13 37 2 5 -4 16 -3 23 2 8 4 27 6 43 3 17
-2 28 0 25 5 -4 5 0 9 8 9 8 0 12 -4 9 -9 -3 -4 5 -6 18 -4 13 3 26 5 31 5 4
1 7 9 7 19 0 14 2 15 10 2 8 -13 10 -13 10 2 0 12 5 15 16 11 10 -4 17 2 21
17 4 17 8 19 15 8 7 -9 8 -7 5 10 -3 12 -1 20 4 16 5 -3 9 0 9 6 0 6 5 8 11 4
8 -4 9 0 4 15 -4 14 -1 23 9 27 9 3 13 10 10 15 -3 5 -10 7 -15 4 -15 -10 -10
2 8 16 15 12 16 12 8 -1 -4 -8 -4 -12 0 -7 12 10 16 39 5 32 -5 -3 -8 4 -7 15
1 14 6 19 17 15 9 -3 8 1 -4 10 -12 9 -14 15 -7 15 7 0 11 6 8 13 -2 6 -10 11
-16 9 -7 -1 -9 3 -5 9 3 6 0 15 -7 20 -11 7 -11 9 3 9 9 0 20 5 23 10 4 6 1 9
-7 8 -8 -2 -13 6 -12 20 0 17 -3 21 -15 17 -13 -5 -14 -4 -4 6 17 17 17 32 1
23 -9 -5 -8 -2 1 9 12 15 11 20 -2 35 -11 12 -13 22 -7 28 7 7 4 17 -8 30 -10
11 -21 29 -24 41 -5 17 -2 20 11 15 14 -5 14 -4 2 11 -7 9 -18 14 -24 10 -6
-3 -7 -1 -3 6 4 6 12 9 17 6 5 -3 6 1 3 10 -4 8 0 23 7 32 8 9 9 14 3 10 -7
-4 -14 0 -18 8 -3 8 0 17 6 21 7 5 8 2 3 -6 -5 -9 -4 -11 4 -6 9 6 9 11 -1 24
-10 12 -10 14 0 8 12 -7 16 4 13 31 -1 7 4 13 11 13 9 0 9 3 -2 10 -12 8 -12
10 -1 10 10 0 11 3 2 14 -10 12 -8 13 11 9 23 -5 23 -5 3 11 -11 10 -14 14 -6
10 11 -5 13 -3 7 11 -6 16 -4 16 10 4 16 -13 16 -12 5 10 -7 13 -9 21 -3 17 5
-3 15 0 21 8 9 11 8 18 -6 32 -17 17 -17 17 0 11 13 -5 17 -1 17 14 0 11 5 17
10 14 6 -4 7 -11 4 -17 -5 -7 -2 -8 5 -4 9 6 9 12 -3 25 -20 22 -20 32 -1 25
11 -5 13 -2 9 10 -3 9 -11 13 -18 9 -6 -4 -5 1 3 10 7 9 18 14 25 11 6 -3 2 2
-8 10 -19 15 -19 16 -2 16 15 0 16 3 7 14 -9 11 -9 16 0 22 8 4 9 3 5 -4 -5
-8 -1 -10 10 -5 15 5 15 7 0 15 -14 8 -11 13 16 40 29 28 29 30 7 23 -23 -7
-23 -7 -4 8 11 8 23 13 28 10 4 -2 6 1 5 9 -2 7 2 12 9 11 8 -2 10 4 6 14 -4
11 -3 14 5 9 7 -4 12 -1 12 9 0 9 5 13 11 9 7 -4 10 -1 7 7 -3 8 2 20 11 27 9
8 10 10 2 6 -9 -4 -12 -2 -9 7 3 8 11 13 18 11 8 -2 10 3 7 13 -4 9 -1 15 9
15 8 0 13 4 10 9 -8 13 4 42 14 36 5 -3 7 6 4 21 -4 21 -2 25 11 20 9 -3 14
-2 11 3 -10 15 6 71 17 64 6 -4 7 -1 3 6 -5 7 0 18 10 27 17 12 17 13 2 8 -10
-3 -18 -1 -18 5 0 6 6 11 14 11 10 0 14 10 12 35 -3 28 0 33 9 25 10 -8 15 -7
21 1 4 8 3 9 -4 5 -7 -4 -12 -4 -13 1 0 4 -2 16 -4 26 -2 9 1 15 5 12 5 -3 11
-1 15 5 3 5 1 10 -6 10 -8 0 -7 5 2 17 12 15 12 16 -3 10 -10 -3 -18 -2 -18 2
0 5 7 12 16 15 11 4 13 10 7 19 -14 17 -24 47 -15 46 19 -3 25 2 12 11 -13 8
-13 13 -2 31 8 11 9 18 4 15 -10 -6 -23 17 -27 46 -1 14 1 15 12 6 11 -8 12
-7 7 6 -3 9 -10 16 -16 16 -5 0 -6 5 -3 10 3 6 0 10 -7 11 -7 0 -4 4 7 9 11 5
14 9 8 9 -7 1 -13 8 -13 16 0 8 -6 15 -12 15 -9 0 -8 4 2 10 10 6 11 10 3 10
-7 0 -13 7 -13 16 0 9 5 12 13 8 8 -5 8 -2 -2 9 -15 19 -26 23 -15 5 4 -7 3
-8 -5 -4 -9 6 -9 11 0 22 9 11 8 14 -3 14 -11 0 -12 13 -8 64 3 35 2 62 -2 60
-3 -2 -9 0 -13 6 -3 5 1 10 9 10 9 0 16 5 16 11 0 5 -5 7 -12 3 -8 -5 -9 -2
-5 9 3 10 2 17 -2 17 -5 0 -8 12 -6 28 2 15 -2 34 -8 42 -8 10 -4 9 9 -2 20
-17 20 -17 18 11 -1 16 -5 34 -9 41 -3 6 -3 10 2 9 14 -3 43 13 43 23 0 6 -7
5 -15 -2 -9 -7 -18 -10 -21 -7 -3 3 4 10 15 17 12 6 19 16 15 21 -4 7 2 6 16
-1 20 -11 21 -10 10 10 -11 20 -10 21 9 11 17 -10 19 -8 16 9 -2 11 1 23 7 26
7 4 8 2 4 -4 -4 -7 -3 -12 3 -12 6 0 15 9 21 21 7 11 18 18 25 15 7 -2 21 6
30 20 9 14 21 22 27 18 7 -4 8 -3 4 5 -4 6 -12 9 -17 6 -5 -4 -9 -4 -9 0 0 3
12 10 26 15 14 6 23 14 20 19 -4 5 5 19 20 30 15 12 23 25 18 32 -5 9 -2 10
10 6 14 -6 17 -3 12 9 -5 14 -4 15 8 5 13 -11 14 -8 6 18 -8 27 -7 30 8 22 14
-8 17 -5 17 14 -1 13 -8 32 -16 41 -8 10 -9 15 -2 11 8 -5 11 0 10 13 -1 11
-5 20 -10 20 -5 0 -7 6 -4 14 8 21 -29 46 -75 50 -10 1 -21 5 -24 9 -4 4 -20
7 -35 7 -15 0 -30 4 -34 10 -3 5 -12 7 -20 4 -8 -4 -18 1 -21 10 -3 9 -13 16
-22 16 -12 0 -13 3 -4 12 18 18 14 31 -7 25 -14 -3 -18 -1 -14 9 3 8 10 11 17
7 6 -3 4 2 -5 13 -27 32 -32 44 -15 38 9 -3 13 -11 9 -17 -3 -6 -1 -7 6 -3 8
6 9 12 2 20 -6 7 -8 16 -4 19 3 4 2 7 -4 7 -11 0 -11 29 2 49 6 10 4 12 -5 6
-8 -5 -11 -3 -8 6 3 8 1 25 -4 38 -8 22 -7 23 8 10 16 -13 16 -12 6 8 -7 12
-17 24 -24 26 -9 4 -8 6 2 6 16 1 20 55 5 69 -5 4 -5 1 0 -7 5 -9 4 -12 -3 -8
-12 8 -11 25 2 46 6 10 5 12 -2 7 -7 -4 -12 -4 -13 1 0 4 -2 18 -3 31 -2 17 1
21 13 17 12 -5 11 -2 -3 14 -16 18 -16 20 -1 29 16 8 16 9 1 15 -12 5 -15 3
-10 -6 4 -6 3 -8 -1 -4 -16 14 -14 39 2 33 12 -5 13 -4 5 7 -7 8 -8 18 -4 22
4 5 3 6 -3 3 -5 -3 -17 1 -25 10 -13 14 -12 15 3 9 9 -3 17 -2 17 3 0 6 -7 10
-15 10 -8 0 -15 7 -15 15 0 8 -3 14 -7 14 -20 -3 -33 2 -33 14 0 8 -7 14 -15
14 -11 0 -12 -3 -3 -14 16 -20 -12 -13 -30 7 -8 8 -11 9 -7 3 6 -13 -23 -19
-73 -14 -13 1 -21 -2 -18 -8 5 -8 -2 -8 -33 -2 -2 1 3 9 10 19 13 16 13 16 -7
-1 -11 -9 -24 -14 -29 -10 -4 5 -5 2 -1 -5 4 -7 12 -9 18 -6 7 4 8 2 4 -4 -8
-13 -36 -5 -36 10 0 5 -9 7 -20 3 -16 -5 -19 -3 -13 12 6 15 4 16 -9 5 -13
-10 -18 -10 -24 -1 -5 8 -3 10 7 5 8 -4 4 1 -9 11 -18 15 -20 21 -10 32 9 10
10 12 1 7 -8 -4 -15 2 -19 19 -3 13 -9 23 -13 21 -3 -2 -13 3 -21 12 -13 14
-12 15 3 9 9 -3 17 -2 17 3 0 6 -7 10 -16 10 -11 0 -15 6 -11 20 3 13 1 18 -6
13 -7 -4 -8 0 -4 11 4 10 3 15 -3 11 -6 -3 -10 1 -10 10 0 10 -5 14 -12 10 -7
-4 -4 1 7 11 17 14 17 16 3 11 -14 -5 -18 -1 -18 18 0 13 -8 30 -18 37 -10 7
-22 20 -27 28 -8 13 -7 13 8 1 15 -12 17 -12 12 2 -4 8 -15 17 -26 20 -13 3
-17 11 -13 21 4 10 1 16 -7 16 -11 0 -11 3 1 10 13 8 12 10 -2 10 -10 0 -18
-5 -18 -12 0 -6 -3 -9 -6 -6 -3 4 0 16 6 28 8 15 8 20 1 16 -6 -4 -11 -2 -11
4 0 6 -4 8 -10 5 -5 -3 -10 1 -10 10 0 10 -5 13 -12 9 -10 -6 -10 -4 0 8 11
14 10 19 -9 32 -12 8 -26 13 -31 10 -5 -3 -8 2 -6 11 2 12 -5 19 -20 21 -16 3
-21 0 -16 -8 4 -7 3 -8 -4 -4 -6 4 -9 12 -6 19 3 9 -8 14 -33 15 -21 2 -40 7
-41 13 -3 6 -9 5 -18 -2 -11 -9 -14 -8 -14 2 0 8 -6 6 -16 -7 -8 -10 -13 -14
-10 -7 4 6 2 14 -3 17 -5 4 -13 -3 -16 -15 -4 -11 -13 -18 -20 -15 -7 2 -23
-4 -35 -14 -13 -11 -26 -17 -31 -14 -5 3 -6 -3 -2 -12 5 -13 2 -16 -9 -11 -12
4 -14 1 -11 -14 3 -10 -1 -27 -8 -36 -9 -11 -10 -14 -2 -9 9 5 11 2 7 -8 -3
-9 -10 -13 -15 -10 -5 3 -6 -2 -3 -11 4 -8 1 -22 -6 -30 -6 -8 -9 -19 -5 -25
3 -5 -2 -10 -12 -10 -10 0 -14 -4 -8 -8 6 -4 11 -13 13 -21 3 -12 0 -12 -13
-1 -13 11 -15 10 -10 -2 4 -9 -1 -18 -10 -22 -10 -4 -14 -2 -9 5 4 7 1 10 -7
7 -8 -3 -13 -12 -11 -19 2 -8 -8 -1 -22 14 -16 19 -26 24 -29 15 -3 -7 -6 -3
-6 9 -1 29 -17 38 -30 16 -10 -17 -10 -17 -11 2 0 17 -2 17 -10 5 -7 -11 -10
-12 -10 -2 0 7 -8 21 -17 30 -16 16 -16 16 -10 0 3 -10 2 -20 -3 -23 -5 -3
-10 5 -12 17 -2 16 -9 22 -22 20 -13 -2 -16 1 -10 10 5 9 2 8 -11 -2 -11 -9
-16 -10 -11 -2 4 7 1 12 -8 12 -15 0 -21 12 -17 33 1 5 -3 6 -8 2 -6 -3 -9
-11 -7 -18 1 -7 1 -9 -1 -4 -3 4 -10 4 -15 1 -6 -4 -8 -3 -5 2 8 14 -9 37 -30
40 -10 1 -29 6 -42 10 -19 5 -22 4 -16 -6 5 -9 4 -11 -4 -6 -6 4 -8 12 -5 18
5 8 1 9 -11 4 -15 -5 -16 -4 -6 8 9 11 9 16 0 22 -8 4 -9 3 -5 -4 4 -7 4 -12
-1 -13 -4 0 -16 -2 -26 -4 -9 -2 -15 1 -11 6 3 5 10 6 16 3 7 -4 8 -2 4 5 -4
6 -12 9 -17 6 -5 -4 -9 -1 -9 4 0 6 -5 11 -11 11 -5 0 -7 -4 -4 -10 3 -5 2
-10 -3 -10 -17 0 -22 13 -10 29 7 9 2 7 -11 -4 -23 -19 -24 -19 -17 -1 6 17 5
17 -11 5 -14 -12 -16 -12 -8 0 6 11 4 13 -8 8 -10 -3 -17 -3 -17 1 0 5 -7 17
-16 28 -15 18 -15 18 -5 -3 15 -30 14 -40 -2 -18 -8 10 -19 15 -26 11 -6 -4
-11 -4 -10 1 4 20 -2 24 -18 12 -11 -10 -14 -10 -9 -1 4 7 2 12 -4 12 -6 0 -8
6 -4 13 5 9 4 9 -7 -1 -11 -10 -16 -8 -27 10 -7 13 -11 15 -8 6 3 -12 1 -15
-10 -11 -7 3 -14 11 -14 18 0 14 -35 10 -57 -7 -7 -6 -14 -4 -19 3 -4 7 -3 9
3 6 6 -4 17 1 24 10 10 12 10 14 2 9 -7 -4 -13 -2 -13 3 0 6 -5 11 -11 11 -5
0 -7 -4 -4 -10 3 -6 -1 -7 -9 -4 -9 3 -14 9 -11 13 2 4 -2 8 -10 8 -8 0 -12
-3 -10 -7 2 -4 -2 -7 -10 -7 -8 0 -12 4 -9 9 3 4 -2 8 -11 8 -10 0 -13 -5 -9
-12 4 -8 3 -10 -2 -5 -5 5 -9 14 -9 20 0 7 -4 12 -10 12 -5 0 -15 4 -22 8 -6
4 -15 2 -19 -4z m1360 -197 c3 -5 -1 -9 -9 -9 -8 0 -12 4 -9 9 3 4 7 8 9 8 2
0 6 -4 9 -8z m-1544 -72 c0 -5 -2 -10 -4 -10 -3 0 -8 5 -11 10 -3 6 -1 10 4
10 6 0 11 -4 11 -10z m1670 -136 c0 -8 -19 -13 -24 -6 -3 5 1 9 9 9 8 0 15 -2
15 -3z m-2507 -79 c-3 -9 -8 -14 -10 -11 -3 3 -2 9 2 15 9 16 15 13 8 -4z
m141 -463 c3 -5 -1 -9 -9 -9 -8 0 -12 4 -9 9 3 4 7 8 9 8 2 0 6 -4 9 -8z
m-134 -676 c0 -2 -8 -10 -17 -17 -16 -13 -17 -12 -4 4 13 16 21 21 21 13z
m3133 -81 c-3 -9 -8 -14 -10 -11 -3 3 -2 9 2 15 9 16 15 13 8 -4z m-2163
-1564 c0 -6 -4 -12 -8 -15 -5 -3 -9 1 -9 9 0 8 4 15 9 15 4 0 8 -4 8 -9z m24
-127 c3 -8 2 -12 -4 -9 -6 3 -10 10 -10 16 0 14 7 11 14 -7z m1681 -294 c3 -5
-1 -10 -10 -10 -9 0 -13 5 -10 10 3 6 8 10 10 10 2 0 7 -4 10 -10z m-1600 -59
c3 -5 2 -12 -3 -15 -5 -3 -9 1 -9 9 0 17 3 19 12 6z"/>
<path d="M3190 4549 c0 -5 5 -7 10 -4 6 3 10 8 10 11 0 2 -4 4 -10 4 -5 0 -10
-5 -10 -11z"/>
<path d="M2986 4298 c3 -5 10 -6 15 -3 13 9 11 12 -6 12 -8 0 -12 -4 -9 -9z"/>
<path d="M1079 3633 c-13 -16 -12 -17 4 -4 9 7 17 15 17 17 0 8 -8 3 -21 -13z"/>
<path d="M4289 3043 c-12 -16 -12 -17 2 -6 9 7 20 9 24 5 5 -4 5 -1 1 6 -9 16
-11 15 -27 -5z"/>
<path d="M4040 2721 c0 -6 4 -13 10 -16 6 -3 7 1 4 9 -7 18 -14 21 -14 7z"/>
<path d="M1216 2202 c-3 -5 1 -9 9 -9 8 0 15 4 15 9 0 4 -4 8 -9 8 -6 0 -12
-4 -15 -8z"/>
<path d="M1665 1529 c-4 -6 -5 -12 -2 -15 2 -3 7 2 10 11 7 17 1 20 -8 4z"/>
<path d="M1776 1487 c3 -10 9 -15 12 -12 3 3 0 11 -7 18 -10 9 -11 8 -5 -6z"/>
<path d="M2095 709 c-11 -17 1 -21 15 -4 8 9 8 15 2 15 -6 0 -14 -5 -17 -11z"/>
<path d="M2095 589 c-4 -6 -5 -12 -2 -15 2 -3 7 2 10 11 7 17 1 20 -8 4z"/>
<path d="M3106 478 c3 -5 10 -6 15 -3 13 9 11 12 -6 12 -8 0 -12 -4 -9 -9z"/>
</g>
</svg>
